<?xml version="1.0" encoding="utf-8"?>
<!-- Generated by IcoMoon.io -->
<!DOCTYPE svg PUBLIC "-//W3C//DTD SVG 1.1//EN" "http://www.w3.org/Graphics/SVG/1.1/DTD/svg11.dtd">
<svg version="1.1" xmlns="http://www.w3.org/2000/svg" xmlns:xlink="http://www.w3.org/1999/xlink" width="20" height="20" viewBox="0 0 20 20">
<path fill="#555" d="M11.25 12.93c0.703 0 1.25-0.547 1.25-1.25s-0.547-1.25-1.25-1.25h-2.93v2.5h2.93zM8.32 5.43v2.5h2.5c0.703 0 1.25-0.547 1.25-1.25s-0.547-1.25-1.25-1.25h-2.5zM13.008 8.984c1.094 0.508 1.797 1.602 1.797 2.852 0 1.758-1.328 3.164-3.086 3.164h-5.898v-11.68h5.234c1.875 0 3.32 1.484 3.32 3.359 0 0.859-0.547 1.758-1.367 2.305z"></path>
</svg>
