<?xml version="1.0" encoding="utf-8"?>
<!-- Generated by IcoMoon.io -->
<!DOCTYPE svg PUBLIC "-//W3C//DTD SVG 1.1//EN" "http://www.w3.org/Graphics/SVG/1.1/DTD/svg11.dtd">
<svg version="1.1" xmlns="http://www.w3.org/2000/svg" xmlns:xlink="http://www.w3.org/1999/xlink" width="20" height="20" viewBox="0 0 20 20">
<path fill="#555" d="M10 14.57c-1.953 0-3.594-1.172-4.258-2.891h8.516c-0.664 1.719-2.305 2.891-4.258 2.891zM7.070 9.18c-0.703 0-1.25-0.547-1.25-1.25s0.547-1.25 1.25-1.25 1.25 0.547 1.25 1.25-0.547 1.25-1.25 1.25zM12.93 9.18c-0.703 0-1.25-0.547-1.25-1.25s0.547-1.25 1.25-1.25 1.25 0.547 1.25 1.25-0.547 1.25-1.25 1.25zM10 16.68c3.672 0 6.68-3.008 6.68-6.68s-3.008-6.68-6.68-6.68-6.68 3.008-6.68 6.68 3.008 6.68 6.68 6.68zM10 1.68c4.609 0 8.32 3.711 8.32 8.32s-3.711 8.32-8.32 8.32-8.32-3.711-8.32-8.32 3.711-8.32 8.32-8.32z"></path>
</svg>
