<?xml version="1.0" encoding="utf-8"?>
<!-- Generated by IcoMoon.io -->
<!DOCTYPE svg PUBLIC "-//W3C//DTD SVG 1.1//EN" "http://www.w3.org/Graphics/SVG/1.1/DTD/svg11.dtd">
<svg version="1.1" xmlns="http://www.w3.org/2000/svg" xmlns:xlink="http://www.w3.org/1999/xlink" width="19" height="20" viewBox="0 0 19 20">
<path fill="#555" d="M14.976 12.918c0-0.237-0.091-0.456-0.255-0.62l-1.897-1.897c-0.164-0.164-0.392-0.255-0.62-0.255-0.264 0-0.474 0.1-0.657 0.292 0.301 0.301 0.657 0.556 0.657 1.021 0 0.483-0.392 0.875-0.875 0.875-0.465 0-0.72-0.356-1.021-0.657-0.191 0.182-0.301 0.392-0.301 0.666 0 0.228 0.091 0.456 0.255 0.62l1.878 1.887c0.164 0.164 0.392 0.246 0.62 0.246s0.456-0.082 0.62-0.237l1.34-1.331c0.164-0.164 0.255-0.383 0.255-0.611zM8.566 6.489c0-0.228-0.091-0.456-0.255-0.62l-1.878-1.887c-0.164-0.164-0.392-0.255-0.62-0.255s-0.456 0.091-0.62 0.246l-1.34 1.331c-0.164 0.164-0.255 0.383-0.255 0.611 0 0.237 0.091 0.456 0.255 0.62l1.897 1.897c0.164 0.164 0.392 0.246 0.62 0.246 0.264 0 0.474-0.091 0.657-0.283-0.301-0.301-0.657-0.556-0.657-1.021 0-0.483 0.392-0.875 0.875-0.875 0.465 0 0.72 0.356 1.021 0.657 0.191-0.182 0.301-0.392 0.301-0.666zM16.726 12.918c0 0.693-0.283 1.368-0.775 1.851l-1.34 1.331c-0.492 0.492-1.158 0.757-1.851 0.757-0.702 0-1.368-0.274-1.86-0.775l-1.878-1.887c-0.492-0.492-0.757-1.158-0.757-1.851 0-0.72 0.292-1.404 0.802-1.906l-0.802-0.802c-0.502 0.511-1.176 0.802-1.897 0.802-0.693 0-1.368-0.274-1.86-0.766l-1.897-1.897c-0.502-0.502-0.766-1.158-0.766-1.86 0-0.693 0.283-1.368 0.775-1.851l1.34-1.331c0.492-0.492 1.158-0.757 1.851-0.757 0.702 0 1.368 0.274 1.86 0.775l1.878 1.887c0.492 0.492 0.757 1.158 0.757 1.851 0 0.72-0.292 1.404-0.802 1.906l0.802 0.802c0.502-0.511 1.176-0.802 1.897-0.802 0.693 0 1.368 0.274 1.86 0.766l1.897 1.897c0.502 0.502 0.766 1.158 0.766 1.86z"></path>
</svg>
