<?xml version="1.0" encoding="utf-8"?>
<!-- Generated by IcoMoon.io -->
<!DOCTYPE svg PUBLIC "-//W3C//DTD SVG 1.1//EN" "http://www.w3.org/Graphics/SVG/1.1/DTD/svg11.dtd">
<svg version="1.1" xmlns="http://www.w3.org/2000/svg" xmlns:xlink="http://www.w3.org/1999/xlink" width="20" height="20" viewBox="0 0 20 20">
<path fill="#555" d="M14.18 5.82c2.305 0 4.141 1.875 4.141 4.18s-1.836 4.18-4.141 4.18h-3.359v-1.602h3.359c1.406 0 2.578-1.172 2.578-2.578s-1.172-2.578-2.578-2.578h-3.359v-1.602h3.359zM6.68 10.82v-1.641h6.641v1.641h-6.641zM3.242 10c0 1.406 1.172 2.578 2.578 2.578h3.359v1.602h-3.359c-2.305 0-4.141-1.875-4.141-4.18s1.836-4.18 4.141-4.18h3.359v1.602h-3.359c-1.406 0-2.578 1.172-2.578 2.578z"></path>
</svg>
