<?xml version="1.0" encoding="utf-8"?>
<!-- Generated by IcoMoon.io -->
<!DOCTYPE svg PUBLIC "-//W3C//DTD SVG 1.1//EN" "http://www.w3.org/Graphics/SVG/1.1/DTD/svg11.dtd">
<svg version="1.1" xmlns="http://www.w3.org/2000/svg" xmlns:xlink="http://www.w3.org/1999/xlink" width="20" height="20" viewBox="0 0 20 20">
<path fill="#555" d="M5.82 4.18h11.68v1.641h-11.68v-1.641zM5.82 10.82v-1.641h11.68v1.641h-11.68zM5.82 15.82v-1.641h11.68v1.641h-11.68zM3.32 13.75c0.703 0 1.25 0.586 1.25 1.25s-0.586 1.25-1.25 1.25-1.25-0.586-1.25-1.25 0.547-1.25 1.25-1.25zM3.32 3.75c0.703 0 1.25 0.547 1.25 1.25s-0.547 1.25-1.25 1.25-1.25-0.547-1.25-1.25 0.547-1.25 1.25-1.25zM3.32 8.75c0.703 0 1.25 0.547 1.25 1.25s-0.547 1.25-1.25 1.25-1.25-0.547-1.25-1.25 0.547-1.25 1.25-1.25z"></path>
</svg>
