<?xml version="1.0" encoding="utf-8"?>
<!-- Generated by IcoMoon.io -->
<!DOCTYPE svg PUBLIC "-//W3C//DTD SVG 1.1//EN" "http://www.w3.org/Graphics/SVG/1.1/DTD/svg11.dtd">
<svg version="1.1" xmlns="http://www.w3.org/2000/svg" xmlns:xlink="http://www.w3.org/1999/xlink" width="20" height="20" viewBox="0 0 20 20">
<path fill="#555" d="M7.813 10.938c0 1.489 0.944 2.109 2.422 2.109 1.022 0 1.914-0.417 1.914-1.406 0-0.934-0.496-1.146-1.172-1.484-0.117-0.039-0.313-0.117-0.469-0.156h-8.008v-1.68h15v1.68h-3.242c0.039 0.078 0.117 0.195 0.156 0.273 0.156 0.391 0.273 0.859 0.273 1.367 0 1.807-1.179 2.714-2.617 3.125-0.547 0.156-1.133 0.234-1.797 0.234-0.391 0-0.82-0.039-1.211-0.117-0.856-0.171-1.586-0.408-2.188-0.859-0.892-0.669-1.523-1.559-1.523-3.086h2.461zM12.148 6.25c0-1.202-0.766-1.758-1.992-1.758-0.882 0-1.548 0.283-1.836 0.859-0.078 0.156-0.117 0.352-0.117 0.547 0 0.391 0.234 0.742 0.625 1.016 0.313 0.195 0.625 0.391 1.172 0.586h-3.828c-0.039-0.078-0.117-0.117-0.156-0.195-0.234-0.391-0.313-0.859-0.313-1.406 0-1.123 0.583-1.928 1.25-2.461 0.802-0.562 1.868-0.938 3.242-0.938 1.37 0 2.505 0.391 3.242 1.055 0.686 0.617 1.211 1.482 1.211 2.695h-2.5z"></path>
</svg>
