<?xml version="1.0" encoding="utf-8"?>
<!-- Generated by IcoMoon.io -->
<!DOCTYPE svg PUBLIC "-//W3C//DTD SVG 1.1//EN" "http://www.w3.org/Graphics/SVG/1.1/DTD/svg11.dtd">
<svg version="1.1" xmlns="http://www.w3.org/2000/svg" xmlns:xlink="http://www.w3.org/1999/xlink" width="19" height="20" viewBox="0 0 19 20">
<path fill="#555" d="M5.686 13.435l-2.345 2.345c-0.064 0.055-0.137 0.082-0.211 0.082s-0.147-0.027-0.211-0.082c-0.11-0.119-0.11-0.302 0-0.421l2.345-2.345c0.119-0.11 0.302-0.11 0.421 0 0.11 0.119 0.11 0.302 0 0.421zM7.234 13.81v2.931c0 0.165-0.128 0.293-0.293 0.293s-0.293-0.128-0.293-0.293v-2.931c0-0.165 0.128-0.293 0.293-0.293s0.293 0.128 0.293 0.293zM5.183 11.759c0 0.165-0.128 0.293-0.293 0.293h-2.931c-0.165 0-0.293-0.128-0.293-0.293s0.128-0.293 0.293-0.293h2.931c0.165 0 0.293 0.128 0.293 0.293zM16.76 12.931c0 0.705-0.275 1.365-0.779 1.859l-1.346 1.337c-0.495 0.495-1.154 0.76-1.859 0.76s-1.374-0.275-1.868-0.779l-3.059-3.068c-0.156-0.156-0.275-0.33-0.385-0.513l2.189-0.165 2.5 2.51c0.33 0.33 0.916 0.339 1.246 0.009l1.346-1.337c0.165-0.165 0.256-0.385 0.256-0.614 0-0.238-0.092-0.458-0.256-0.623l-2.51-2.519 0.165-2.189c0.183 0.11 0.357 0.229 0.513 0.385l3.078 3.078c0.495 0.504 0.769 1.163 0.769 1.868zM11.109 6.3l-2.189 0.165-2.5-2.51c-0.165-0.165-0.385-0.256-0.623-0.256s-0.458 0.092-0.623 0.247l-1.346 1.337c-0.165 0.165-0.256 0.385-0.256 0.614 0 0.238 0.092 0.458 0.256 0.623l2.51 2.51-0.165 2.198c-0.183-0.11-0.357-0.229-0.513-0.385l-3.078-3.078c-0.495-0.504-0.769-1.163-0.769-1.868s0.275-1.365 0.779-1.859l1.346-1.337c0.495-0.495 1.154-0.76 1.859-0.76s1.374 0.275 1.868 0.779l3.059 3.068c0.156 0.156 0.275 0.33 0.385 0.513zM16.906 7.069c0 0.165-0.128 0.293-0.293 0.293h-2.931c-0.165 0-0.293-0.128-0.293-0.293s0.128-0.293 0.293-0.293h2.931c0.165 0 0.293 0.128 0.293 0.293zM11.924 2.086v2.931c0 0.165-0.128 0.293-0.293 0.293s-0.293-0.128-0.293-0.293v-2.931c0-0.165 0.128-0.293 0.293-0.293s0.293 0.128 0.293 0.293zM15.652 3.469l-2.345 2.345c-0.064 0.055-0.137 0.082-0.211 0.082s-0.147-0.027-0.211-0.082c-0.11-0.119-0.11-0.302 0-0.421l2.345-2.345c0.119-0.11 0.302-0.11 0.421 0 0.11 0.119 0.11 0.302 0 0.421z"></path>
</svg>
